<svg width="80" height="80" viewBox="0 0 80 80" fill="none" xmlns="http://www.w3.org/2000/svg" xmlns:xlink="http://www.w3.org/1999/xlink">
<rect width="80" height="80" fill="#0c0c0c"/>
<rect x="1" y="1" width="78" height="78" stroke="#E6E2CF" stroke-opacity="0.7" stroke-width="2"/>
<line x1="14" y1="5" x2="66" y2="5" stroke="#E6E2CF" stroke-opacity="0.7" stroke-width="2"/>
<line x1="5" y1="66" x2="5" y2="14" stroke="#E6E2CF" stroke-opacity="0.7" stroke-width="2"/>
<line x1="75" y1="66" x2="75" y2="14" stroke="#E6E2CF" stroke-opacity="0.7" stroke-width="2"/>
<line x1="14" y1="75" x2="66" y2="75" stroke="#E6E2CF" stroke-opacity="0.7" stroke-width="2"/>
<line x1="4" y1="5" x2="11" y2="5" stroke="#E6E2CF" stroke-opacity="0.7" stroke-width="2"/>
<line x1="5" y1="11" x2="5" y2="6" stroke="#E6E2CF" stroke-opacity="0.7" stroke-width="2"/>
<line y1="-1" x2="7" y2="-1" transform="matrix(1 0 0 -1 4 74)" stroke="#E6E2CF" stroke-opacity="0.7" stroke-width="2"/>
<line y1="-1" x2="5" y2="-1" transform="matrix(0 1 1 0 6 69)" stroke="#E6E2CF" stroke-opacity="0.7" stroke-width="2"/>
<line y1="-1" x2="7" y2="-1" transform="matrix(-1 0 0 1 76 6)" stroke="#E6E2CF" stroke-opacity="0.7" stroke-width="2"/>
<line y1="-1" x2="5" y2="-1" transform="matrix(0 -1 -1 0 74 11)" stroke="#E6E2CF" stroke-opacity="0.7" stroke-width="2"/>
<line x1="76" y1="75" x2="69" y2="75" stroke="#E6E2CF" stroke-opacity="0.7" stroke-width="2"/>
<line x1="75" y1="69" x2="75" y2="74" stroke="#E6E2CF" stroke-opacity="0.7" stroke-width="2"/>
<rect width="80" height="80" fill="url(#pattern0)"/>
<defs>
<pattern id="pattern0" patternContentUnits="objectBoundingBox" width="1" height="1">
<use xlink:href="#image0" transform="scale(0.0125)"/>
</pattern>
</defs>
</svg>
