<svg width="181" height="180" viewBox="0 0 181 180" fill="none" xmlns="http://www.w3.org/2000/svg">
<path d="M17.5546 89.3525L17.9049 89L17.5546 88.6475L9.45822 80.5011L81.2522 8.70711L89.8986 17.3536L90.2522 17.7071L90.6058 17.3536L99.2522 8.70711L171.045 80.5L162.896 88.6464L162.543 89L162.896 89.3536L171.045 97.5001L98.2523 170.293L90.6058 162.646L90.2522 162.293L89.8986 162.646L82.2521 170.293L9.45816 97.4989L17.5546 89.3525Z" stroke="#2D2D2D"/>
<path d="M90.2387 9.29561L85.9098 5L90.2333 0.709806L94.4956 5.0715L90.2387 9.29561Z" stroke="#2D2D2D"/>
<path d="M90.2387 170.704L85.9098 175L90.2333 179.29L94.4956 174.928L90.2387 170.704Z" stroke="#2D2D2D"/>
<path d="M170.907 89L175.2 84.7071L179.493 89L175.2 93.2929L170.907 89Z" stroke="#2D2D2D"/>
<path d="M9.50194 89L5.32029 93.2929L0.916273 89L5.32029 84.7072L9.50194 89Z" stroke="#2D2D2D"/>
<path d="M74.398 106H72.058V89.49H66.26V87.436H80.17V89.49H74.398V106ZM98.6595 96.692C98.6595 98.616 98.3301 100.297 97.6715 101.736C97.0301 103.157 96.0768 104.267 94.8115 105.064C93.5461 105.861 91.9775 106.26 90.1055 106.26C88.1815 106.26 86.5781 105.861 85.2955 105.064C84.0301 104.267 83.0855 103.149 82.4615 101.71C81.8375 100.271 81.5255 98.59 81.5255 96.666C81.5255 94.7593 81.8375 93.0953 82.4615 91.674C83.0855 90.2527 84.0301 89.1433 85.2955 88.346C86.5781 87.5487 88.1901 87.15 90.1315 87.15C91.9861 87.15 93.5461 87.5487 94.8115 88.346C96.0768 89.126 97.0301 90.2353 97.6715 91.674C98.3301 93.0953 98.6595 94.768 98.6595 96.692ZM83.9955 96.692C83.9955 99.032 84.4895 100.878 85.4775 102.23C86.4655 103.565 88.0081 104.232 90.1055 104.232C92.2201 104.232 93.7628 103.565 94.7335 102.23C95.7041 100.878 96.1895 99.032 96.1895 96.692C96.1895 94.352 95.7041 92.5233 94.7335 91.206C93.7628 89.8713 92.2288 89.204 90.1315 89.204C88.0341 89.204 86.4828 89.8713 85.4775 91.206C84.4895 92.5233 83.9955 94.352 83.9955 96.692ZM107.688 87.436C110.115 87.436 111.883 87.9127 112.992 88.866C114.101 89.8193 114.656 91.1627 114.656 92.896C114.656 93.9187 114.422 94.8807 113.954 95.782C113.503 96.666 112.732 97.3853 111.64 97.94C110.565 98.4947 109.101 98.772 107.246 98.772H105.114V106H102.774V87.436H107.688ZM107.48 89.438H105.114V96.77H106.986C108.754 96.77 110.071 96.484 110.938 95.912C111.805 95.34 112.238 94.3693 112.238 93C112.238 91.804 111.857 90.9113 111.094 90.322C110.331 89.7327 109.127 89.438 107.48 89.438Z" fill="#2D2D2D"/>
<path d="M74 74.5L90.7 58L107.5 74.5" stroke="#2D2D2D"/>
</svg>
