<svg width="256" height="340" viewBox="0 0 256 340" fill="none" xmlns="http://www.w3.org/2000/svg">
<path fill-rule="evenodd" clip-rule="evenodd" d="M108.253 40.4145L35 82.7073V167.293L108.253 209.585L181.506 167.293V82.7073L108.253 40.4145ZM216.506 62.5L108.253 0L0 62.5V187.5L108.253 250L143.054 229.908L181.552 207.681L216.506 187.5V62.5ZM182.496 206.831L255.284 287.706L175.184 339.053L141.797 230.293L143.054 229.908L143.709 229.707L176.323 335.947L252.222 287.294L181.01 208.169L181.552 207.681L182.496 206.831Z" fill="#2D2D2D"/>
<path d="M181.552 207.681L143.054 229.908L143.709 229.707L176.323 335.947L252.222 287.294L181.01 208.169L181.552 207.681Z" fill="#2D2D2D"/>
</svg>
