<svg width="32" height="32" viewBox="0 0 133 132" fill="none" xmlns="http://www.w3.org/2000/svg">
<path d="M66.5053 9C51.1607 9 49.235 9.06709 43.2082 9.34136C37.1933 9.61679 33.0876 10.5691 29.4951 11.9663C25.779 13.4094 22.6267 15.3398 19.4862 18.4814C16.3434 21.6219 14.4129 24.7741 12.9651 28.489C11.5644 32.0826 10.6109 36.1894 10.3402 42.202C10.0706 48.2287 10 50.1555 10 65.5C10 80.8445 10.0683 82.7643 10.3414 88.791C10.618 94.8058 11.5702 98.9115 12.9663 102.504C14.4106 106.22 16.341 109.372 19.4827 112.513C22.622 115.656 25.7743 117.591 29.488 119.034C33.0828 120.431 37.1897 121.383 43.2035 121.659C49.2302 121.933 51.1548 122 66.4982 122C81.844 122 83.7639 121.933 89.7906 121.659C95.8056 121.383 99.916 120.431 103.511 119.034C107.226 117.591 110.373 115.656 113.513 112.513C116.655 109.372 118.586 106.22 120.034 102.505C121.423 98.9115 122.376 94.8047 122.659 88.7921C122.929 82.7655 123 80.8445 123 65.5C123 50.1555 122.929 48.2298 122.659 42.2032C122.376 36.1883 121.423 32.0826 120.034 28.4901C118.586 24.7741 116.655 21.6219 113.513 18.4814C110.37 15.3386 107.227 13.4082 103.507 11.9663C99.9054 10.5691 95.7973 9.61679 89.7824 9.34136C83.7556 9.06709 81.837 9 66.4876 9H66.5053ZM61.4367 19.1818C62.9411 19.1794 64.6196 19.1818 66.5053 19.1818C81.5909 19.1818 83.379 19.2359 89.3362 19.5066C94.845 19.7585 97.8349 20.679 99.8265 21.4524C102.463 22.4764 104.343 23.7006 106.319 25.6781C108.297 27.6556 109.521 29.5389 110.547 32.1756C111.321 34.1649 112.243 37.1547 112.493 42.6634C112.764 48.6194 112.823 50.4086 112.823 65.4871C112.823 80.5655 112.764 82.3547 112.493 88.3107C112.241 93.8194 111.321 96.8092 110.547 98.7985C109.523 101.435 108.297 103.313 106.319 105.289C104.342 107.266 102.464 108.491 99.8265 109.515C97.8372 110.292 94.845 111.21 89.3362 111.462C83.3801 111.732 81.5909 111.791 66.5053 111.791C51.4185 111.791 49.6305 111.732 43.6744 111.462C38.1655 111.207 35.1757 110.287 33.1829 109.514C30.5462 108.489 28.6628 107.265 26.6853 105.288C24.7078 103.31 23.4836 101.432 22.4572 98.7938C21.6839 96.8045 20.7622 93.8147 20.5115 88.306C20.2407 82.35 20.1866 80.5608 20.1866 65.4729C20.1866 50.3851 20.2407 48.6053 20.5115 42.6493C20.7634 37.1405 21.6839 34.1507 22.4572 32.1591C23.4813 29.5224 24.7078 27.6391 26.6853 25.6616C28.6628 23.6841 30.5462 22.4599 33.1829 21.4335C35.1745 20.6567 38.1655 19.7385 43.6744 19.4855C48.8865 19.25 50.9064 19.1794 61.4367 19.1676V19.1818ZM96.6648 28.5631C92.9217 28.5631 89.8848 31.5965 89.8848 35.3408C89.8848 39.0839 92.9217 42.1208 96.6648 42.1208C100.408 42.1208 103.445 39.0839 103.445 35.3408C103.445 31.5976 100.408 28.5608 96.6648 28.5608V28.5631ZM66.5053 36.4849C50.4815 36.4849 37.4899 49.4764 37.4899 65.5C37.4899 81.5236 50.4815 94.5092 66.5053 94.5092C82.5291 94.5092 95.516 81.5236 95.516 65.5C95.516 49.4764 82.5279 36.4849 66.5041 36.4849H66.5053ZM66.5053 46.6667C76.9061 46.6667 85.3388 55.0981 85.3388 65.5C85.3388 75.9007 76.9061 84.3333 66.5053 84.3333C56.1033 84.3333 47.6718 75.9007 47.6718 65.5C47.6718 55.0981 56.1033 46.6667 66.5053 46.6667V46.6667Z" fill="white"/>
</svg>
