<svg width="32" height="28" viewBox="0 0 32 28" fill="none" xmlns="http://www.w3.org/2000/svg">
<path d="M11.079 17.962C12.2532 17.962 13.205 17.0102 13.205 15.836C13.205 14.6618 12.2532 13.71 11.079 13.71C9.90485 13.71 8.953 14.6618 8.953 15.836C8.953 17.0102 9.90485 17.962 11.079 17.962Z" fill="currentColor"/>
<path d="M31.553 14.116C31.553 11.489 29.485 9.35201 26.943 9.35201C26.051 9.35201 25.223 9.62201 24.518 10.074C22.331 8.80401 19.573 8.01501 16.561 7.90701L18.297 2.92301L21.893 3.78401C21.881 3.90301 21.858 4.01701 21.858 4.13901C21.858 6.12101 23.471 7.73401 25.454 7.73401C27.434 7.73401 29.05 6.12201 29.05 4.13901C29.05 2.15601 27.435 0.544006 25.454 0.544006C24.161 0.544006 23.037 1.23401 22.404 2.25901L17.262 1.02901L14.862 7.91701C11.864 8.07101 9.13501 8.90701 6.98901 10.211C7.03201 10.181 7.06901 10.147 7.11201 10.117C6.39001 9.63501 5.53301 9.35101 4.61101 9.35101C2.06801 9.35101 0.00100708 11.487 0.00100708 14.115C0.00100708 15.872 0.936007 17.396 2.31301 18.219C2.87701 23.131 8.73201 27.008 15.862 27.008C23.038 27.008 28.923 23.079 29.421 18.122C30.699 17.279 31.553 15.8 31.553 14.116ZM25.452 2.14601C26.551 2.14601 27.446 3.04101 27.446 4.14101C27.446 5.24001 26.55 6.13501 25.452 6.13501C24.349 6.13501 23.456 5.24001 23.456 4.14101C23.456 3.04001 24.352 2.14601 25.452 2.14601ZM4.61001 10.952C4.97301 10.952 5.31501 11.031 5.63701 11.155C3.89701 12.55 2.72801 14.3 2.37601 16.232C1.89501 15.67 1.59801 14.93 1.59801 14.116C1.59801 12.372 2.95001 10.952 4.61001 10.952ZM15.86 25.41C9.23901 25.41 3.85401 21.838 3.85401 17.447C3.85401 13.055 9.23901 9.48401 15.86 9.48401C22.48 9.48401 27.864 13.056 27.864 17.447C27.864 21.837 22.48 25.41 15.86 25.41ZM29.305 16.058C28.912 14.178 27.746 12.477 26.033 11.117C26.322 11.019 26.624 10.952 26.943 10.952C28.602 10.952 29.953 12.371 29.953 14.116C29.951 14.85 29.705 15.521 29.305 16.058Z" fill="currentColor"/>
<path d="M20.221 17.962C21.3952 17.962 22.347 17.0102 22.347 15.836C22.347 14.6618 21.3952 13.71 20.221 13.71C19.0468 13.71 18.095 14.6618 18.095 15.836C18.095 17.0102 19.0468 17.962 20.221 17.962Z" fill="currentColor"/>
<path d="M19.879 20.562C15.375 23.535 11.741 20.734 11.579 20.607C11.234 20.33 10.732 20.385 10.456 20.728C10.18 21.074 10.232 21.576 10.576 21.853C10.606 21.878 12.682 23.51 15.697 23.51C17.196 23.51 18.929 23.105 20.759 21.898C21.128 21.654 21.23 21.158 20.988 20.791C20.743 20.421 20.247 20.318 19.879 20.562Z" fill="currentColor"/>
</svg>
