<svg width="32" height="32" viewBox="0 0 32 32" fill="none" xmlns="http://www.w3.org/2000/svg">
<g clip-path="url(#clip0)">
<path d="M11.079 19.962C12.2532 19.962 13.205 19.0102 13.205 17.836C13.205 16.6618 12.2532 15.71 11.079 15.71C9.90485 15.71 8.953 16.6618 8.953 17.836C8.953 19.0102 9.90485 19.962 11.079 19.962Z" fill="white"/>
<path d="M31.553 16.116C31.553 13.489 29.485 11.352 26.943 11.352C26.051 11.352 25.223 11.622 24.518 12.074C22.331 10.804 19.573 10.015 16.561 9.90701L18.297 4.92301L21.893 5.78401C21.881 5.90301 21.858 6.01701 21.858 6.13901C21.858 8.12101 23.471 9.73401 25.454 9.73401C27.434 9.73401 29.05 8.12201 29.05 6.13901C29.05 4.15601 27.435 2.54401 25.454 2.54401C24.161 2.54401 23.037 3.23401 22.404 4.25901L17.262 3.02901L14.862 9.91701C11.864 10.071 9.13501 10.907 6.98901 12.211C7.03201 12.181 7.06901 12.147 7.11201 12.117C6.39001 11.635 5.53301 11.351 4.61101 11.351C2.06801 11.351 0.00100708 13.487 0.00100708 16.115C0.00100708 17.872 0.936007 19.396 2.31301 20.219C2.87701 25.131 8.73201 29.008 15.862 29.008C23.038 29.008 28.923 25.079 29.421 20.122C30.699 19.279 31.553 17.8 31.553 16.116ZM25.452 4.14601C26.551 4.14601 27.446 5.04101 27.446 6.14101C27.446 7.24001 26.55 8.13501 25.452 8.13501C24.349 8.13501 23.456 7.24001 23.456 6.14101C23.456 5.04001 24.352 4.14601 25.452 4.14601ZM4.61001 12.952C4.97301 12.952 5.31501 13.031 5.63701 13.155C3.89701 14.55 2.72801 16.3 2.37601 18.232C1.89501 17.67 1.59801 16.93 1.59801 16.116C1.59801 14.372 2.95001 12.952 4.61001 12.952ZM15.86 27.41C9.23901 27.41 3.85401 23.838 3.85401 19.447C3.85401 15.055 9.23901 11.484 15.86 11.484C22.48 11.484 27.864 15.056 27.864 19.447C27.864 23.837 22.48 27.41 15.86 27.41ZM29.305 18.058C28.912 16.178 27.746 14.477 26.033 13.117C26.322 13.019 26.624 12.952 26.943 12.952C28.602 12.952 29.953 14.371 29.953 16.116C29.951 16.85 29.705 17.521 29.305 18.058Z" fill="white"/>
<path d="M20.221 19.962C21.3952 19.962 22.347 19.0102 22.347 17.836C22.347 16.6618 21.3952 15.71 20.221 15.71C19.0468 15.71 18.095 16.6618 18.095 17.836C18.095 19.0102 19.0468 19.962 20.221 19.962Z" fill="white"/>
<path d="M19.879 22.562C15.375 25.535 11.741 22.734 11.579 22.607C11.234 22.33 10.732 22.385 10.456 22.728C10.18 23.074 10.232 23.576 10.576 23.853C10.606 23.878 12.682 25.51 15.697 25.51C17.196 25.51 18.929 25.105 20.759 23.898C21.128 23.654 21.23 23.158 20.988 22.791C20.743 22.421 20.247 22.318 19.879 22.562Z" fill="white"/>
</g>
<defs>
<clipPath id="clip0">
<rect width="31.553" height="31.552" fill="white"/>
</clipPath>
</defs>
</svg>
