<svg width="32" height="245" viewBox="0 0 300 245" fill="none" xmlns="http://www.w3.org/2000/svg">
<path d="M94.7188 243.187C207.179 243.187 268.675 150.019 268.675 69.2308C268.675 66.5845 268.621 63.9501 268.502 61.3277C280.44 52.6975 290.817 41.9277 299 29.6678C288.045 34.5372 276.256 37.8153 263.889 39.2934C276.513 31.7241 286.204 19.7503 290.775 5.47595C278.962 12.479 265.88 17.5689 251.951 20.3165C240.794 8.43217 224.911 1 207.322 1C173.559 1 146.178 28.3805 146.178 62.1323C146.178 66.9302 146.715 71.5969 147.764 76.0729C96.9481 73.516 51.89 49.1871 21.7381 12.193C16.4873 21.2284 13.4596 31.7241 13.4596 42.923C13.4596 64.1349 24.2532 82.8614 40.6672 93.816C30.6365 93.5061 21.2136 90.7525 12.9768 86.1693C12.9678 86.4258 12.9678 86.6759 12.9678 86.95C12.9678 116.56 34.0426 141.282 62.0191 146.884C56.8815 148.285 51.4758 149.036 45.8972 149.036C41.9635 149.036 38.1312 148.649 34.4061 147.933C42.19 172.227 64.7607 189.904 91.5214 190.399C70.5956 206.801 44.2343 216.569 15.5843 216.569C10.6553 216.569 5.78593 216.289 1 215.723C28.0587 233.067 60.1894 243.187 94.7219 243.187" fill="currentColor"/>
</svg>
