<svg id="star_4" data-name="star 4" xmlns="http://www.w3.org/2000/svg" xmlns:xlink="http://www.w3.org/1999/xlink" width="1207.97" height="263.156" viewBox="0 0 1207.97 263.156">
  <defs>
    <style>
      .cls-1, .cls-2, .cls-3, .cls-4 {
        stroke-width: 6px;
        fill-rule: evenodd;
      }

      .cls-1 {
        fill: url(#linear-gradient);
        stroke: url(#linear-gradient-2);
      }

      .cls-2 {
        fill: url(#linear-gradient-3);
        stroke: url(#linear-gradient-4);
      }

      .cls-3 {
        fill: url(#linear-gradient-5);
        stroke: url(#linear-gradient-6);
      }

      .cls-4 {
        fill: url(#linear-gradient-7);
        stroke: url(#linear-gradient-8);
      }
    </style>
    <linearGradient id="linear-gradient" x1="45.953" y1="32.063" x2="282.516" y2="268.625" gradientUnits="userSpaceOnUse">
      <stop offset="0.15" stop-color="#c5ddde"/>
      <stop offset="0.23" stop-color="#afc3c3"/>
      <stop offset="0.374" stop-color="#8e8ec7"/>
      <stop offset="0.446" stop-color="#7676a9"/>
      <stop offset="0.514" stop-color="#7f77aa"/>
      <stop offset="0.598" stop-color="#97a"/>
      <stop offset="0.68" stop-color="#a8a"/>
      <stop offset="0.758" stop-color="#bfaebf"/>
      <stop offset="0.85" stop-color="#b3b3b3"/>
    </linearGradient>
    <linearGradient id="linear-gradient-2" x1="45.953" y1="32.063" x2="282.516" y2="268.625" gradientUnits="userSpaceOnUse">
      <stop offset="0.165" stop-color="#b3b3b3"/>
      <stop offset="0.24" stop-color="#bfaebf"/>
      <stop offset="0.328" stop-color="#a8a"/>
      <stop offset="0.406" stop-color="#97a"/>
      <stop offset="0.496" stop-color="#7f77aa"/>
      <stop offset="0.578" stop-color="#7676a9"/>
      <stop offset="0.654" stop-color="#8e8ec7"/>
      <stop offset="0.776" stop-color="#aec4c4"/>
      <stop offset="0.835" stop-color="#aec4c4"/>
    </linearGradient>
    <linearGradient id="linear-gradient-3" x1="355.953" y1="32.063" x2="592.516" xlink:href="#linear-gradient"/>
    <linearGradient id="linear-gradient-4" x1="355.953" y1="32.063" x2="592.516" xlink:href="#linear-gradient-2"/>
    <linearGradient id="linear-gradient-5" x1="665.953" y1="32.063" x2="902.516" xlink:href="#linear-gradient"/>
    <linearGradient id="linear-gradient-6" x1="665.953" y1="32.063" x2="902.516" xlink:href="#linear-gradient-2"/>
    <linearGradient id="linear-gradient-7" x1="976.951" y1="32.063" x2="1213.514" xlink:href="#linear-gradient"/>
    <linearGradient id="linear-gradient-8" x1="976.951" y1="32.063" x2="1213.514" xlink:href="#linear-gradient-2"/>
  </defs>
  <path id="Polygon_2_copy_2" data-name="Polygon 2 copy 2" class="cls-1" d="M241.056,268.639l-76.841-52.915L87.343,268.593l26.58-89.432L39.887,122.389l93.268-2.357L164.27,32.076l31.063,87.975,93.267,2.413-74.071,56.728Z" transform="translate(-25.75 -17.063)"/>
  <path id="Polygon_2_copy_6" data-name="Polygon 2 copy 6" class="cls-2" d="M551.056,268.639l-76.841-52.915-76.872,52.869,26.58-89.432-74.036-56.772,93.268-2.357L474.27,32.076l31.063,87.975,93.267,2.413-74.071,56.728Z" transform="translate(-25.75 -17.063)"/>
  <path id="Polygon_2_copy_7" data-name="Polygon 2 copy 7" class="cls-3" d="M861.056,268.639l-76.841-52.915-76.872,52.869,26.58-89.432-74.036-56.772,93.268-2.357L784.27,32.076l31.063,87.975,93.267,2.413-74.071,56.728Z" transform="translate(-25.75 -17.063)"/>
  <path id="Polygon_2_copy_8" data-name="Polygon 2 copy 8" class="cls-4" d="M1172.06,268.639l-76.84-52.915-76.88,52.869,26.58-89.432-74.033-56.772,93.263-2.357,31.12-87.956,31.06,87.975,93.27,2.413-74.07,56.728Z" transform="translate(-25.75 -17.063)"/>
</svg>
